{"title":"Thunderbirds Are Go 2015 S01E03 Space Race 720P WEB-DL","uid":11824437,"size":247554452,"categoryP":"video","categoryS":"hd___tv_shows","magnet":"?xt=urn:btih:f43db492451d98fff39640f1b874f12db150369e&amp;dn=Thunderbirds+Are+Go+2015+S01E03+Space+Race+720P+WEB-DL&amp;tr=udp%3A%2F%2Ftracker.openbittorrent.com%3A80&amp;tr=udp%3A%2F%2Fopen.demonii.com%3A1337&amp;tr=udp%3A%2F%2Ftracker.coppersurfer.tk%3A6969&amp;tr=udp%3A%2F%2Fexodus.desync.com%3A6969","seeders":5,"leechers":0,"uploader":"jmanwf","files":1,"time":1429426591,"description":"Alan is on space junk duty. Things take a turn when one of the pieces of\ndebris turns out to be a heat-seeking SAT-MINE that activates and locks\nonto TB3's heat signature. Alan pulls some incredible moves in order to\ndodge the mine, but he can only outfly it for so long before exhaustion\nkicks in. Back on Earth, Lady Penelope and Parker implement a plan to\nsneak into a top-secret storage facility and find the mine's deactivation\ncode. They succeed and the mine powers down before TB3 is destroyed.\n\n\nFormat                                   : MPEG-4\nFormat profile                           : Base Media\nCodec ID                                 : isom\nFile size                                : 236 MiB\nDuration                                 : 22mn 11s\nOverall bit rate mode                    : Variable\nOverall bit rate                         : 1 488 Kbps\nEncoded date                             : UTC 2015-04-12 01:39:12\nTagged date                              : UTC 2015-04-12 01:39:12\n\nVideo\nID                                       : 1\nFormat                                   : AVC\nFormat/Info                              : Advanced Video Codec\nFormat profile                           : &lt;a class=&quot;__cf_email__&quot; href=&quot;/cdn-cgi/l/email-protection&quot; data-cfemail=&quot;6e260709062e225a405f&quot;&gt;[email&amp;#160;protected]&lt;/a&gt;&lt;script cf-hash='f9e31' type=&quot;text/javascript&quot;&gt;\n/* &lt;![CDATA[ */!function(){try{var t=&quot;currentScript&quot;in document?document.currentScript:function(){for(var t=document.getElementsByTagName(&quot;script&quot;),e=t.length;e--;)if(t[e].getAttribute(&quot;cf-hash&quot;))return t[e]}();if(t&amp;&amp;t.previousSibling){var e,r,n,i,c=t.previousSibling,a=c.getAttribute(&quot;data-cfemail&quot;);if(a){for(e=&quot;&quot;,r=parseInt(a.substr(0,2),16),n=2;a.length-n;n+=2)i=parseInt(a.substr(n,2),16)^r,e+=String.fromCharCode(i);e=document.createTextNode(e),c.parentNode.replaceChild(e,c)}}}catch(u){}}();/* ]]&gt; */&lt;/script&gt;\nFormat settings, CABAC                   : Yes\nFormat settings, ReFrames                : 5 frames\nCodec ID                                 : avc1\nCodec ID/Info                            : Advanced Video Coding\nDuration                                 : 22mn 11s\nBit rate                                 : 1 324 Kbps\nMaximum bit rate                         : 6 555 Kbps\nWidth                                    : 1 280 pixels\nHeight                                   : 720 pixels\nDisplay aspect ratio                     : 16:9\nFrame rate mode                          : Constant\nFrame rate                               : 25.000 fps\nColor space                              : YUV\nChroma subsampling                       : 4:2:0\nBit depth                                : 8 bits\nScan type                                : Progressive\nBits/(Pixel*Frame)                       : 0.057\nStream size                              : 210 MiB (89%)\nWriting library                          : x264 core 146 r2538 121396c\n\nEncoded date                             : UTC 2015-04-12 01:39:12\nTagged date                              : UTC 2015-04-12 01:39:19\nMatrix coefficients                      : BT.709\nColor range                              : Limited\n\nAudio\nID                                       : 2\nFormat                                   : AAC\nFormat/Info                              : Advanced Audio Codec\nFormat profile                           : LC\nCodec ID                                 : 40\nDuration                                 : 22mn 11s\nBit rate mode                            : Variable\nBit rate                                 : 160 Kbps\nMaximum bit rate                         : 187 Kbps\nChannel(s)                               : 2 channels\nChannel positions                        : Front: L R\nSampling rate                            : 48.0 KHz\nCompression mode                         : Lossy\nStream size                              : 25.4 MiB (11%)\nLanguage                                 : English\nEncoded date                             : UTC 2015-04-12 01:11:06\nTagged date                              : UTC 2015-04-12 01:39:19\n\n\n &lt;a href=&quot;\nhttps://itunes.apple.com/gb/tv-season/thunderbirds-are-go/id973447617&quot; rel=&quot;nofollow&quot; target=&quot;_NEW&quot;&gt;\nhttps://itunes.apple.com/gb/tv-season/thunderbirds-are-go/id973447617&lt;/a&gt;","torrent":{"xt":"urn:btih:f43db492451d98fff39640f1b874f12db150369e","amp;dn":"Thunderbirds+Are+Go+2015+S01E03+Space+Race+720P+WEB-DL","amp;tr":["udp%3A%2F%2Ftracker.openbittorrent.com%3A80","udp%3A%2F%2Fopen.demonii.com%3A1337","udp%3A%2F%2Ftracker.coppersurfer.tk%3A6969","udp%3A%2F%2Fexodus.desync.com%3A6969"],"infoHash":"f43db492451d98fff39640f1b874f12db150369e","infoHashBuffer":{"type":"Buffer","data":[244,61,180,146,69,29,152,255,243,150,64,241,184,116,241,45,177,80,54,158]},"announce":[],"urlList":[]}}